<?xml version="1.0" encoding="UTF-8" standalone="no"?>
<svg
   xmlns:dc="http://purl.org/dc/elements/1.1/"
   xmlns:cc="http://creativecommons.org/ns#"
   xmlns:rdf="http://www.w3.org/1999/02/22-rdf-syntax-ns#"
   xmlns:svg="http://www.w3.org/2000/svg"
   xmlns="http://www.w3.org/2000/svg"
   xmlns:xlink="http://www.w3.org/1999/xlink"
   xmlns:sodipodi="http://sodipodi.sourceforge.net/DTD/sodipodi-0.dtd"
   xmlns:inkscape="http://www.inkscape.org/namespaces/inkscape"
   fill="none"
   version="1.1"
   viewBox="0 0 14 14"
   id="svg36"
   sodipodi:docname="spinner.svg"
   inkscape:version="1.0.2 (e86c870879, 2021-01-15)">
  <sodipodi:namedview
     pagecolor="#ffffff"
     bordercolor="#666666"
     borderopacity="1"
     objecttolerance="10"
     gridtolerance="10"
     guidetolerance="10"
     inkscape:pageopacity="0"
     inkscape:pageshadow="2"
     inkscape:window-width="2560"
     inkscape:window-height="1377"
     id="namedview38"
     showgrid="false"
     inkscape:zoom="72"
     inkscape:cx="7"
     inkscape:cy="7"
     inkscape:window-x="1912"
     inkscape:window-y="-8"
     inkscape:window-maximized="1"
     inkscape:current-layer="g907" />
  <metadata
     id="metadata2">
    <rdf:RDF>
      <cc:Work
         rdf:about="">
        <dc:format>image/svg+xml</dc:format>
        <dc:type
           rdf:resource="http://purl.org/dc/dcmitype/StillImage" />
        <dc:title />
      </cc:Work>
    </rdf:RDF>
  </metadata>
  <defs
     id="defs28">
    <linearGradient
       id="linearGradient931">
      <stop
         stop-color="#3d68b0"
         offset="0"
         id="stop919" />
      <stop
         stop-color="#3d68b0"
         offset="0.25348625"
         id="stop921"
         style="stop-color:#3d68b0;stop-opacity:0.40000001" />
      <stop
         stop-color="#fff"
         offset="0.45278966"
         id="stop923"
         style="stop-color:#ffffff;stop-opacity:0" />
      <stop
         stop-color="#fff"
         offset="0.57978618"
         id="stop925"
         style="stop-color:#ffffff;stop-opacity:0" />
      <stop
         stop-color="#523e91"
         offset="0.78779638"
         id="stop927"
         style="stop-color:#523e91;stop-opacity:0.40000001" />
      <stop
         stop-color="#523e91"
         offset="1"
         id="stop929" />
    </linearGradient>
    <linearGradient
       id="linearGradient945">
      <stop
         stop-color="#3d68b0"
         offset="0"
         id="stop4" />
      <stop
         stop-color="#3d68b0"
         offset=".27785"
         id="stop6" />
      <stop
         stop-color="#fff"
         offset=".40092"
         id="stop8" />
      <stop
         stop-color="#fff"
         offset=".60911"
         id="stop10" />
      <stop
         stop-color="#523e91"
         offset=".71836"
         id="stop12" />
      <stop
         stop-color="#523e91"
         offset="1"
         id="stop14" />
    </linearGradient>
    <linearGradient
       id="linearGradient947"
       x1=".03125"
       x2="14.031"
       y1="-.015625"
       y2="14.047"
       gradientUnits="userSpaceOnUse"
       xlink:href="#linearGradient945" />
    <clipPath
       id="clipPath1021">
      <circle
         cx="7"
         cy="7"
         r="5.4375"
         d="M 12.4375,7 A 5.4375,5.4375 0 0 1 7,12.4375 5.4375,5.4375 0 0 1 1.5625,7 5.4375,5.4375 0 0 1 7,1.5625 5.4375,5.4375 0 0 1 12.4375,7 Z"
         display="none"
         fill="#83ffe7"
         stroke-width=".77679"
         id="circle18" />
      <path
         class="powerclip"
         d="M -5,-5 H 19 V 19 H -5 Z M 12.4375,7 A 5.4375,5.4375 0 0 0 7,1.5625 5.4375,5.4375 0 0 0 1.5625,7 5.4375,5.4375 0 0 0 7,12.4375 5.4375,5.4375 0 0 0 12.4375,7 Z"
         fill="#83ffe7"
         stroke-width=".77679"
         id="path20" />
    </clipPath>
    <clipPath
       id="clipPath1021-7">
      <circle
         cx="7"
         cy="7"
         r="5.4375"
         d="M 12.4375,7 A 5.4375,5.4375 0 0 1 7,12.4375 5.4375,5.4375 0 0 1 1.5625,7 5.4375,5.4375 0 0 1 7,1.5625 5.4375,5.4375 0 0 1 12.4375,7 Z"
         display="none"
         fill="#83ffe7"
         stroke-width=".77679"
         id="circle23" />
      <path
         class="powerclip"
         d="M -5,-5 H 19 V 19 H -5 Z M 12.4375,7 A 5.4375,5.4375 0 0 0 7,1.5625 5.4375,5.4375 0 0 0 1.5625,7 5.4375,5.4375 0 0 0 7,12.4375 5.4375,5.4375 0 0 0 12.4375,7 Z"
         fill="#83ffe7"
         stroke-width=".77679"
         id="path25" />
    </clipPath>
    <inkscape:path-effect
       effect="powerclip"
       id="path-effect1025"
       is_visible="true"
       lpeversion="1"
       inverse="true"
       flatten="false"
       hide_clip="false"
       message="Jeśli po konwersji przycięcia na ścieżki nie zostanie spłaszczony wynik, użyj reguły wypełniania w oknie dialogowym &lt;b&gt;wypełnienie i obrys&lt;/b&gt; ." />
    <linearGradient
       inkscape:collect="always"
       id="linearGradient984">
      <stop
         style="stop-color:#3d68b0;stop-opacity:1"
         offset="0"
         id="stop980" />
      <stop
         style="stop-color:#523e91;stop-opacity:1"
         offset="1"
         id="stop982" />
    </linearGradient>
    <clipPath
       clipPathUnits="userSpaceOnUse"
       id="clipPath844">
      <g
         inkscape:label="Clip"
         id="use846" />
    </clipPath>
    <linearGradient
       inkscape:collect="always"
       xlink:href="#linearGradient984"
       id="linearGradient986"
       x1="7.2549949e-10"
       y1="8.7389723e-10"
       x2="13.984375"
       y2="14.03125"
       gradientUnits="userSpaceOnUse" />
    <linearGradient
       inkscape:collect="always"
       xlink:href="#linearGradient931"
       id="linearGradient947-6"
       x1="3.4895833"
       y1="2.8732641"
       x2="10.600694"
       y2="10.97743"
       gradientUnits="userSpaceOnUse" />
    <clipPath
       clipPathUnits="userSpaceOnUse"
       id="clipPath1021-4">
      <circle
         style="display:none;fill:#83ffe7;fill-opacity:1;stroke-width:0.776786"
         id="circle1023"
         cx="7"
         cy="7"
         r="5.4375"
         d="M 12.4375,7 A 5.4375,5.4375 0 0 1 7,12.4375 5.4375,5.4375 0 0 1 1.5625,7 5.4375,5.4375 0 0 1 7,1.5625 5.4375,5.4375 0 0 1 12.4375,7 Z" />
      <path
         id="lpe_path-effect1025"
         style="fill:#83ffe7;fill-opacity:1;stroke-width:0.776786"
         class="powerclip"
         d="M -5,-5 H 19 V 19 H -5 Z M 12.4375,7 A 5.4375,5.4375 0 0 0 7,1.5625 5.4375,5.4375 0 0 0 1.5625,7 5.4375,5.4375 0 0 0 7,12.4375 5.4375,5.4375 0 0 0 12.4375,7 Z" />
    </clipPath>
  </defs>
  <circle
     d="M 14,7 A 7,7 0 0 1 7,14 7,7 0 0 1 0,7 7,7 0 0 1 7,0 7,7 0 0 1 14,7 Z"
     clip-path="url(#clipPath1021)"
     fill="url(#linearGradient947)"
     id="circle30" />
  <g
     fill="none"
     id="g34">
    <circle
       d="M 14,7 A 7,7 0 0 1 7,14 7,7 0 0 1 0,7 7,7 0 0 1 7,0 7,7 0 0 1 14,7 Z"
       clip-path="url(#clipPath1021-7)"
       fill="url(#linearGradient947)"
       id="circle32" />
  </g>
  <g
     style="fill:none"
     id="g907"
     inkscape:export-xdpi="877.71429"
     inkscape:export-ydpi="877.71429">
    <circle
       style="fill:url(#linearGradient947-6);fill-opacity:1"
       id="path898"
       clip-path="url(#clipPath1021-4)"
       inkscape:path-effect="#path-effect1025"
       sodipodi:type="arc"
       sodipodi:cx="7"
       sodipodi:cy="7"
       sodipodi:rx="7"
       sodipodi:ry="7"
       d="M 14,7 A 7,7 0 0 1 7,14 7,7 0 0 1 0,7 7,7 0 0 1 7,0 7,7 0 0 1 14,7 Z"
       inkscape:export-xdpi="877.71429"
       inkscape:export-ydpi="877.71429" />
    <ellipse
       style="fill:#ffffff;fill-opacity:0"
       id="path911"
       cx="2.7638888"
       cy="11.298611"
       rx="1.8888888"
       ry="2.0625" />
  </g>
</svg>
