<svg fill="none" height="16" viewBox="0 0 16 16" width="16" xmlns="http://www.w3.org/2000/svg">
  <path clip-rule="evenodd" d="M8 0C5.79004 0 4 1.79001 4 4C4 6.20999 5.79004 8 8 8C10.21 8 12 6.20999 12 4C12 1.79001 10.21 0 8 0ZM10 4C10 2.89999 9.09998 2 8 2C6.90002 2 6 2.89999 6 4C6 5.10001 6.90002 6 8 6C9.09998 6 10 5.10001 10 4ZM14 13C13.8 12.29 10.7 11 8 11C5.30005 11 2.19995 12.29 2 13.01V14H14V13ZM0 13C0 10.34 5.32996 9 8 9C10.67 9 16 10.34 16 13V16H0V13Z"
        fill="white"
        fill-rule="evenodd"/>
</svg>
